# xmcd
#
# Track frame offsets:
#	150
#	21232
#	39751
#	56556
#	77854
#	96540
#	112049
#	132846
#	154012
#	171068
#	189190
#	205521
#	223538
#	240643
#
# Disc length: 3457 seconds
#
# Revision: 1
# Processed by: cddbd v1.5.1PL0 Copyright (c) Steve Scherf et al.
# Submitted via: audiograbber 1.81.02
#
DISCID=b40d7f0e
DTITLE=Indian - Mother Earth - Father Sun
DYEAR=2003
DGENRE=Ethnic
TTITLE0=Kiowa - Sundance
TTITLE1=Kiowa - Mother Earth - Father Sun
TTITLE2=Kiowa - Buffalo Hunter
TTITLE3=Kiowa - 50 Of 49
TTITLE4=Kiowa - Grand Entry
TTITLE5=Apache - Intertribal
TTITLE6=Apache - Turtle Land
TTITLE7=Apache - Geronimo
TTITLE8=Apache - Fancy Dancer
TTITLE9=Comanche - Grass Dancer
TTITLE10=Comanche - Flag Song
TTITLE11=Comanche - Fire Keeper
TTITLE12=Navajo - Gila Bend Arizona
TTITLE13=Navajo - Code Talkers
EXTD=
EXTT0=
EXTT1=
EXTT2=
EXTT3=
EXTT4=
EXTT5=
EXTT6=
EXTT7=
EXTT8=
EXTT9=
EXTT10=
EXTT11=
EXTT12=
EXTT13=
PLAYORDER=
